<?xml version="1.0" encoding="UTF-8"?>
<svg version="1.1" viewBox="0 0 2048 2048" width="1280" height="1280" xmlns="http://www.w3.org/2000/svg">
<path transform="translate(0)" d="m0 0h2048v2048h-2048z" fill="none"/>
<path transform="translate(1012,462)" d="m0 0h27l32 3 37 6 23 6 30 10 21 9 23 11 27 16 16 11 16 12 11 9 13 12 8 7 13 13 7 8 12 14 15 20 10 15 10 16 12 22 8 16 11 25 10 30 9 33 5 29 3 29 1 14v42l-3 36-5 32-5 21-12 40-13 31-9 19-11 20-10 16-8 12-12 16-13 16-9 10-7 8-17 17-8 7-14 12-16 12-16 11-20 12-23 12-21 10-37 13-24 6-28 5-23 3-13 1h-38l-25-2-37-6-28-7-39-14-25-12-17-9-23-14-18-13-14-11-10-9-8-7-16-15-7-8-12-13-11-14-10-13-9-13-14-23-10-19-12-25-12-31-9-32-7-30-4-30-2-25v-41l2-28 4-31 6-26 10-36 8-21 9-22 10-19 6-12 11-18 10-15 13-18 11-13 7-8 9-10 22-22 8-7 17-14 17-12 15-10 26-15 25-12 29-11 26-8 29-6 29-4z" fill="none"/>
<path transform="translate(1012,462)" d="m0 0h27l32 3 37 6 23 6 30 10 21 9 23 11 27 16 16 11 16 12 11 9 13 12 8 7 13 13 7 8 12 14 15 20 10 15 10 16 12 22 8 16 11 25 10 30 9 33 5 29 3 29 1 14v42l-3 36-5 32-5 21-12 40-13 31-9 19-11 20-10 16-8 12-12 16-13 16-9 10-7 8-17 17-8 7-14 12-16 12-16 11-20 12-23 12-21 10-37 13-24 6-28 5-23 3-13 1h-38l-25-2-37-6-28-7-39-14-25-12-17-9-23-14-18-13-14-11-10-9-8-7-16-15-7-8-12-13-11-14-10-13-9-13-14-23-10-19-12-25-12-31-9-32-7-30-4-30-2-25v-41l2-28 4-31 6-26 10-36 8-21 9-22 10-19 6-12 11-18 10-15 13-18 11-13 7-8 9-10 22-22 8-7 17-14 17-12 15-10 26-15 25-12 29-11 26-8 29-6 29-4zm11 23-37 2-23 3-23 5-34 10-20 8-26 12-23 13-25 17-15 12-11 9-17 16-11 11-7 8-12 14-12 16-11 16-12 20-10 18-10 21-12 31-7 23-7 31-5 30-2 21-1 20v14l2 34 4 28 8 37 6 21 10 28 9 21 11 22 10 17 14 21 12 16 9 11 9 10 7 8 20 20 8 7 17 14 17 12 15 10 24 13 25 12 21 8 34 10 25 5 28 3 17 1h29l34-3 24-4 20-5 25-8 19-7 24-11 23-13 17-11 17-12 17-14 10-9 16-15 14-15 20-25 9-13 12-19 7-11 8-16 9-19 13-34 6-20 9-39 4-30 1-14v-54l-3-32-6-31-9-35-7-20-11-27-13-26-13-22-11-16-12-16-9-11-12-14-25-25-22-18-15-11-15-10-26-15-23-11-23-9-30-9-21-5-29-4-32-2z" fill="white"/>
<path transform="translate(1025,489)" d="m0 0 4 4 8 16 8 19 10 33 7 27 6 35 6 47 1 13v45l-4 44-5 46-4 24-6 26-6 24-4 22-3 23v35l4 25 8 32 7 25 4 21 2 22-1 27-3 33-4 24-8 32-9 27-11 23-5 7h-4l-8-13-11-26-5-15-9-37-4-22-3-29-1-25 1-19 4-25 10-35 7-30 4-26v-26l-3-24-6-31-11-45-5-30-7-75v-59l4-38 4-29 6-29 12-44 9-24 8-18z" fill="white"/>
<path transform="translate(653,609)" d="m0 0 2 1-8 11-14 21-12 20-12 23-8 17-12 30-10 33-6 24-4 26-2 15-2 28v37l3 36 5 32 6 25 10 34 15 36 11 23 10 18 14 22 13 18 2 6-4-2-14-11-11-8-28-22-15-13-10-9-8-7-17-16-31-31-7-8-15-16-9-11-10-11-10-13-12-15-9-12-13-18-9-13-12-18-7-12v-5l12-19 15-22 10-14 10-13 9-12 10-12 7-9 12-14 7-8 11-12 7-8 50-50 8-7 10-9 11-9 13-11 10-8 16-12 18-13z" fill="white"/>
<path transform="translate(1398,612)" d="m0 0 5 2 19 14 13 10 16 13 11 9 14 12 16 15 8 7 40 40 7 8 11 12 9 11 9 10 11 14 12 15 14 19 13 18 7 11 10 15 5 9-1 4-14 22-7 10-12 17-12 16-10 13-9 11-11 14-10 11-7 8-10 11-7 8-10 10-5 6h-2l-2 4h-2l-2 4-8 8-8 7-10 10-8 7-10 9-11 9-14 12-18 14-18 13-11 8h-2l2-4 10-13 14-23 6-10 13-24 13-30 7-19 11-36 6-29 5-37 1-12v-56l-4-36-7-38-9-30-9-27-15-34-15-28-12-19-8-12-8-11z" fill="white"/>
</svg>
